<svg version="1.1" id="Ebene_1" xmlns="http://www.w3.org/2000/svg" xmlns:xlink="http://www.w3.org/1999/xlink" x="0px" y="0px"
	 width="612px" height="792px" viewBox="0 0 612 792" enable-background="new 0 0 612 792" xml:space="preserve">
<rect x="-671.049" y="-35.015" fill="#D9DADB" width="1417.536" height="907.272"/>
<polygon fill="#006AB3" points="1195.479,-269.159 1284.183,-34.727 1195.479,-34.727 1106.775,-34.727 "/>
<g>
	<polygon fill="#006AB3" points="269.991,812.785 269.991,812.785 318.231,811.633 365.823,808.321 412.768,802.921
		458.919,795.577 504.423,786.073 548.919,774.625 592.623,761.377 635.247,746.185 676.935,729.193 717.471,710.401
		756.783,690.025 795.015,667.993 832.023,644.449 867.591,619.177 901.719,592.609 934.479,564.529 965.727,535.081
		995.391,504.409 1023.399,472.297 1049.751,439.033 1074.303,404.689 1097.127,369.193 1117.935,332.545 1136.871,295.033
		1153.935,256.513 1168.695,217.057 1181.511,176.881 1192.095,135.841 1200.447,94.081 1206.423,51.601 1210.095,8.616
		1211.391,-34.943 1179.279,-34.943 1178.127,6.889 1174.599,48.145 1168.767,88.753 1160.847,128.785 1150.695,168.097
		1138.455,206.689 1124.127,244.417 1107.927,281.353 1089.711,317.569 1069.623,352.633 1047.807,386.689 1024.119,419.881
		998.775,451.849 971.775,482.665 943.119,512.329 913.023,540.769 881.415,567.841 848.439,593.545 814.023,617.808
		778.455,640.633 741.519,661.945 703.359,681.745 664.119,699.817 623.871,716.233 582.543,730.849 540.279,743.809
		497.079,754.825 453.159,764.041 408.447,771.241 362.943,776.497 316.791,779.665 269.991,780.673 269.991,780.673 	"/>
	<polygon fill="#006AB3" points="-671.481,-34.943 -670.185,8.616 -666.513,51.601 -660.537,94.081 -652.185,135.841
		-641.601,176.881 -628.785,217.057 -614.025,256.513 -596.961,295.033 -578.025,332.545 -557.217,369.193 -534.393,404.689
		-509.841,439.033 -483.489,472.297 -455.481,504.409 -425.817,535.081 -394.569,564.529 -361.809,592.609 -327.681,619.177
		-292.113,644.449 -255.105,667.993 -216.873,690.025 -177.561,710.401 -137.025,729.193 -95.337,746.185 -52.641,761.377
		-9.009,774.625 35.487,786.073 80.991,795.577 127.215,802.921 174.159,808.321 221.751,811.633 269.991,812.785 269.991,780.673
		223.191,779.665 177.039,776.497 131.535,771.241 86.751,764.041 42.831,754.825 -0.369,743.809 -42.561,730.849 -83.961,716.233
		-124.209,699.817 -163.449,681.745 -201.609,661.945 -238.545,640.633 -274.113,617.808 -308.529,593.545 -341.505,567.841
		-373.113,540.769 -403.209,512.329 -431.865,482.665 -458.865,451.849 -484.209,419.881 -507.897,386.689 -529.713,352.633
		-549.801,317.569 -568.017,281.353 -584.217,244.417 -598.545,206.689 -610.785,168.097 -620.937,128.785 -628.857,88.753
		-634.689,48.145 -638.217,6.889 -639.369,-34.943 	"/>
</g>
<polygon fill="#009D30" points="943.191,-377.159 1031.895,-142.727 943.191,-142.727 854.487,-142.727 "/>
<g>
	<polygon fill="#009D30" points="38.727,704.497 85.959,702.481 132.543,698.377 178.335,692.257 223.479,684.121 267.903,674.113
		311.463,662.233 354.015,648.481 395.703,632.928 436.311,615.721 475.839,596.856 514.359,576.265 551.583,554.161
		587.655,530.473 622.359,505.273 655.623,478.705 687.591,450.769 718.119,421.465 746.919,390.937 774.279,359.113
		799.983,326.209 823.887,292.081 846.207,256.945 866.511,220.657 885.015,183.505 901.503,145.345 916.119,106.393
		928.575,66.505 938.871,25.969 946.935,-15.359 952.911,-57.336 956.439,-99.887 957.663,-142.943 928.863,-142.943
		927.783,-101.759 924.255,-61.223 918.711,-21.119 910.935,18.193 901.071,57 889.191,95.017 875.295,132.385 859.383,168.817
		841.743,204.529 822.159,239.233 800.847,273.073 777.807,305.905 752.967,337.657 726.615,368.329 698.679,397.849
		669.303,426.145 638.343,453.217 606.087,478.921 572.391,503.257 537.471,526.225 501.399,547.753 464.031,567.625
		425.511,586.057 386.055,602.832 345.519,617.952 303.975,631.273 261.567,643.009 218.439,652.729 174.447,660.577
		129.663,666.553 84.231,670.513 38.295,672.529 	"/>
</g>
<g>
	<g>
		<path d="M-136.017-167.783l0.072,29.952c37.728,0,67.104-11.808,87.552-34.848c20.448-23.04,30.816-55.872,30.816-98.208
			c0-43.2-10.368-76.608-30.816-99.648c-20.16-23.04-49.535-34.848-87.624-34.776v28.512c25.848,0,46.152,9.216,59.976,27
			c13.824,17.856,21.024,44.064,21.024,77.76s-7.2,59.616-21.024,77.472C-89.865-176.711-109.88-167.783-136.017-167.783z"/>
		<rect x="18.423" y="-186.503" width="39.168" height="44.352"/>
		<path d="M148.311-218.183c0.576,16.704,5.76,29.376,15.264,37.44s24.48,12.096,44.64,12.096c19.296,0,34.848-4.032,46.08-11.808
			c11.232-8.064,16.992-19.296,16.992-33.12c0-19.584-20.16-34.848-60.48-44.64c-4.608-1.152-8.352-2.016-10.656-2.592
			c-2.016-0.576-5.472-1.728-10.08-2.88c-22.752-5.472-38.88-10.944-47.808-16.128c-8.64-5.185-15.84-12.672-20.448-21.888
			c-4.896-9.216-7.488-19.584-7.488-30.528c0-22.464,8.64-40.32,25.92-53.28c17.28-13.248,41.472-19.872,71.712-19.872
			c26.784,0,48.096,5.76,63.36,16.992c15.552,11.52,23.328,27.36,23.328,46.944v4.032h-34.848
			c-0.576-12.384-6.048-22.176-15.264-29.088c-9.216-6.912-22.752-10.368-39.456-10.368c-17.568,0-31.68,4.032-42.048,11.52
			c-10.368,7.488-15.84,18.144-15.84,30.816c0,16.992,19.296,30.528,57.888,40.032c5.472,1.44,9.792,2.592,12.672,3.168
			c34.56,8.928,57.888,19.008,68.832,29.664c10.944,10.656,16.704,25.92,16.704,44.928c0,24.768-8.64,44.064-25.92,57.888
			c-17.28,13.824-41.472,21.024-72,21.024c-33.408,0-58.176-6.336-74.016-18.72s-23.904-31.968-23.904-57.888v-3.744H148.311z"/>
		<rect x="362.295" y="-186.503" width="39.168" height="44.352"/>
		<path d="M503.127-218.183c0.576,16.704,5.76,29.376,15.264,37.44s24.48,12.096,44.64,12.096c19.296,0,34.848-4.032,46.08-11.808
			c11.231-8.064,16.992-19.296,16.992-33.12c0-19.584-20.16-34.848-60.48-44.64c-4.608-1.152-8.352-2.016-10.656-2.592
			c-2.016-0.576-5.472-1.728-10.08-2.88c-22.752-5.472-38.88-10.944-47.808-16.128c-8.64-5.185-15.839-12.672-20.448-21.888
			c-4.896-9.216-7.487-19.584-7.487-30.528c0-22.464,8.639-40.32,25.919-53.28c17.28-13.248,41.472-19.872,71.712-19.872
			c26.784,0,48.096,5.76,63.36,16.992c15.552,11.52,23.328,27.36,23.328,46.944v4.032h-34.848
			c-0.576-12.384-6.048-22.176-15.264-29.088c-9.216-6.912-22.752-10.368-39.456-10.368c-17.568,0-31.68,4.032-42.048,11.52
			c-10.367,7.488-15.84,18.144-15.84,30.816c0,16.992,19.296,30.528,57.888,40.032c5.472,1.44,9.792,2.592,12.672,3.168
			c34.56,8.928,57.888,19.008,68.832,29.664c10.944,10.656,16.704,25.92,16.704,44.928c0,24.768-8.64,44.064-25.92,57.888
			c-17.28,13.824-41.472,21.024-72,21.024c-33.408,0-58.176-6.336-74.016-18.72s-23.904-31.968-23.904-57.888v-3.744H503.127z"/>
		<rect x="709.623" y="-186.503" width="39.168" height="44.352"/>
		<polygon points="-438.345,-142.151 -438.345,-373.703 -521.289,-142.151 -551.241,-142.151 -636.777,-371.399 -636.777,-142.151
			-671.337,-142.151 -671.337,-401.351 -612.585,-401.351 -535.401,-189.671 -461.961,-401.351 -404.361,-401.351
			-404.361,-142.151 		"/>
		<path d="M-136.017-376.799l0.072-28.584c-37.728,0-67.104,11.808-87.552,35.136c-20.448,23.04-30.816,56.448-30.816,99.072v0.288
			c0,42.048,10.368,75.168,31.104,98.208s49.824,34.848,87.192,34.848v-29.952c-0.072,0.072-0.144,0-0.216,0
			c-25.92,0-46.08-9.217-59.904-27.361c-13.824-17.856-21.024-44.063-21.024-77.759v0.288c0-33.408,7.2-59.616,21.024-77.472
			c13.824-17.856,33.984-26.784,59.904-26.784C-136.161-376.871-136.089-376.799-136.017-376.799z"/>
		<rect x="-340.713" y="-186.503" width="39.168" height="44.352"/>
	</g>
</g>
<g>
	<g>
		<path d="M718.623,1038.073v8.352c0.36,0,0.72,0,1.08,0c7.2,0,13.248-2.016,17.568-5.76s6.912-8.928,6.912-15.264h-10.656
			c0,4.032-1.44,7.2-4.032,9.504c-2.304,2.016-6.048,3.168-10.368,3.168C718.911,1038.073,718.767,1038.073,718.623,1038.073z"/>
		<path d="M718.623,1008.697v7.776h26.425c0-0.576,0.287-1.728,0.287-2.88c0-0.864,0-2.592,0-4.32c0-8.064-2.592-14.688-7.2-19.296
			c-4.607-4.608-11.231-6.912-19.296-6.912c-0.072,0-0.144,0.072-0.216,0.072v7.488c0.144,0,0.288-0.072,0.504-0.072
			c4.32,0,8.064,1.728,10.944,4.896c2.592,2.88,4.032,7.2,4.032,12.096v1.152H718.623z"/>
		<path d="M718.623,990.625v-7.488c-8.856,0-15.984,2.88-20.52,8.568c-4.608,5.472-6.911,13.824-6.911,24.48
			c0,9.791,2.591,17.568,7.199,22.752c4.392,4.752,11.52,7.344,20.232,7.488v-8.352c-4.968-0.073-9.144-1.8-11.88-4.609
			c-2.88-2.879-4.32-7.488-4.32-13.247v-2.304v-1.44h16.2v-7.776H703c0-5.184,1.727-9.792,4.607-13.248
			C710.343,992.425,714.231,990.697,718.623,990.625z"/>
		<path d="M542.655,1038.073v8.352c0.36,0,0.72,0,1.08,0c7.2,0,13.248-2.016,17.568-5.76c4.32-3.744,6.912-8.928,6.912-15.264
			h-10.656c0,4.032-1.44,7.2-4.031,9.504c-2.305,2.016-6.048,3.168-10.369,3.168
			C542.943,1038.073,542.799,1038.073,542.655,1038.073z"/>
		<path d="M542.655,1008.697v7.776h26.424c0-0.576,0.288-1.728,0.288-2.88c0-0.864,0-2.592,0-4.32c0-8.064-2.592-14.688-7.2-19.296
			s-11.232-6.912-19.296-6.912c-0.072,0-0.144,0.072-0.216,0.072v7.488c0.144,0,0.288-0.072,0.504-0.072
			c4.321,0,8.064,1.728,10.944,4.896c2.592,2.88,4.032,7.2,4.032,12.096v1.152H542.655z"/>
		<path d="M596.439,1044.985h-11.232v-47.808c0-1.152,0-2.88,0-4.896c0-2.304-0.576-4.896-0.576-7.776h11.232l0.576,10.368
			c1.44-3.168,4.032-6.048,7.2-7.776c3.168-2.016,6.912-3.168,10.944-3.168s8.064,0.864,11.232,2.592s6.336,4.608,8.64,8.064
			c3.168-3.744,6.624-6.624,9.504-8.064c2.88-1.728,6.912-2.592,10.944-2.592c4.032,0,8.063,0.864,11.52,2.592s6.048,4.32,7.488,7.2
			c0.576,1.152,1.152,3.168,1.44,5.184c0.288,2.304,0.576,5.472,0.576,9.216v36.864h-10.944v-38.304
			c0-4.608-1.152-8.352-3.168-10.656c-2.304-2.304-5.76-3.456-10.08-3.456c-4.608,0-8.353,1.44-10.944,4.032
			c-2.88,2.88-4.32,6.624-4.32,11.232v37.152H625.24v-36.288c0-5.472-1.153-9.792-3.169-12.384
			c-2.304-2.592-5.76-4.032-10.368-4.032c-4.607,0-8.64,1.44-11.232,4.32c-2.592,2.88-4.032,6.912-4.032,12.096V1044.985z"/>
		<path d="M542.655,990.625v-7.488c-8.856,0-15.984,2.88-20.521,8.568c-4.606,5.472-6.912,13.824-6.912,24.48
			c0,9.791,2.592,17.568,7.2,22.752c4.392,4.752,11.521,7.344,20.232,7.488v-8.352c-4.968-0.073-9.144-1.8-11.88-4.609
			c-2.88-2.879-4.32-7.488-4.32-13.247v-2.304v-1.44h16.2v-7.776h-15.624c0-5.184,1.728-9.792,4.608-13.248
			C534.375,992.425,538.263,990.697,542.655,990.625z"/>
		<path d="M73.935,1037.425v8.496c2.592-0.504,4.896-1.296,6.984-2.376c3.168-1.728,5.76-4.32,7.2-7.776v0.288
			c0.288,4.608,0.864,7.776,1.152,8.928h10.08c0-1.152-0.576-2.304-0.576-3.456c0-0.864,0-1.728,0-2.016v-37.44
			c0-6.624-2.016-11.808-5.76-14.688c-3.744-2.88-10.08-4.32-18.144-4.32c-0.36,0-0.648,0.072-0.936,0.072v7.2
			c0.504,0,1.008-0.072,1.512-0.072c4.032,0,7.2,0.864,9.216,2.592c1.728,1.728,2.88,4.32,2.88,7.488v6.912H76.887
			c-1.008,0-1.944,0.072-2.952,0.144v7.56c1.296-0.144,2.664-0.216,4.104-0.216h9.504v6.336c0,5.184-1.44,9.504-4.32,12.383
			C81.063,1035.625,77.895,1036.993,73.935,1037.425z"/>
		<path d="M118.359,992.569h-10.944v-8.064h10.944v-9.504c0-5.76,1.44-10.656,4.032-13.536c2.592-2.88,6.912-4.608,12.672-4.608
			c1.152,0,2.88,0.288,4.32,0.288c1.728,0,3.744,0.576,5.76,0.864v8.928c-2.304-0.576-4.032-1.152-4.896-1.152
			c-0.864,0-2.016-0.288-2.88-0.288c-2.304,0-4.608,0.864-5.76,2.592s-2.016,4.32-2.016,7.2v9.216h13.824v8.064h-13.824v52.416
			h-11.232V992.569z"/>
		<rect x="153.207" y="958.009" width="13.248" height="12.384"/>
		<rect x="154.359" y="984.505" width="11.232" height="60.48"/>
		<polygon points="195.543,1044.985 184.311,1044.985 184.311,958.297 195.543,958.297 195.543,1009.561 218.295,984.505
			231.831,984.505 206.775,1010.713 233.847,1044.985 220.023,1044.985 195.543,1012.729 		"/>
		<path d="M287.127,1019.641c0,5.76,2.016,10.079,4.896,12.384c3.168,2.592,8.352,4.032,14.976,4.032
			c6.336,0,11.808-1.44,15.264-3.744c3.744-2.593,5.76-6.624,5.76-11.232c0-6.336-6.912-11.52-20.448-14.688
			c-1.44-0.576-2.88-1.152-3.456-1.152s-2.016-0.576-3.456-0.864c-7.488-1.728-12.96-3.744-15.84-5.472
			c-2.88-1.728-5.184-4.32-6.624-7.2c-1.728-2.88-2.592-6.624-2.592-10.08c0-7.488,2.88-13.824,8.64-18.144
			s13.824-6.624,23.904-6.624c8.928,0,16.128,2.016,21.312,5.76c5.184,3.744,7.776,9.216,7.776,15.84v1.152h-11.808
			c-0.288-4.032-2.304-7.488-5.184-9.792c-2.88-2.304-7.488-3.456-13.248-3.456s-10.368,1.44-13.824,3.744
			c-3.456,2.592-5.184,6.336-5.184,10.656c0,5.76,6.624,10.368,19.296,13.536c1.728,0.288,3.168,0.864,4.032,0.864
			c11.52,2.88,19.584,6.336,23.04,9.792c3.744,3.456,5.76,8.928,5.76,15.264c0,8.064-2.88,14.688-8.64,19.296
			c-5.76,4.608-14.112,6.912-24.192,6.912c-10.944,0-19.296-2.016-24.48-6.048c-5.184-4.032-8.064-10.657-8.064-19.296v-1.44
			H287.127z"/>
		<polygon points="373.528,1044.985 348.759,984.505 359.991,984.505 379.288,1032.601 398.583,984.505 409.816,984.505
			374.391,1067.737 364.023,1067.737 		"/>
		<path d="M417.015,1026.841h11.232v0.288c0,3.456,1.152,6.335,3.456,8.064c2.304,1.728,5.472,2.88,9.216,2.88
			c3.456,0,6.624-0.865,8.928-2.592c2.304-1.728,3.744-4.032,3.744-6.912c0-2.016-0.576-3.744-1.728-4.896
			c-1.152-1.152-3.168-2.592-5.472-3.168l-12.959-2.88c-5.185-1.152-9.505-3.456-11.808-5.76c-2.593-2.592-4.033-6.048-4.033-10.08
			c0-5.472,2.304-10.08,6.624-13.536c4.32-3.456,10.368-5.184,17.568-5.184c6.912,0,12.384,1.44,16.128,4.32
			c4.032,2.88,6.048,6.912,6.048,11.52c0,0.576,0,1.152,0,1.152l-0.287,0.576h-10.945v-0.288c0-2.88-1.151-5.184-3.168-6.912
			c-2.016-1.728-5.184-2.592-8.64-2.592s-6.336,0.864-8.352,2.592c-2.304,1.728-3.456,4.032-3.456,6.336
			c0,1.728,0.864,3.456,2.016,4.608c1.152,1.152,3.744,2.592,6.624,3.168l13.825,3.744c4.607,1.152,8.351,3.456,10.655,6.048
			c2.304,2.592,3.456,6.336,3.456,10.368c0,5.759-2.303,10.368-6.624,13.536c-4.32,3.455-10.368,5.184-17.568,5.184
			c-8.351,0-14.688-1.44-18.432-4.32c-4.032-2.88-6.048-7.488-6.048-13.824V1026.841z"/>
		<path d="M472.311,984.505h10.368v-12.096l10.945-4.032v16.128h13.535v8.064h-13.535v37.44c0,2.88,0.575,5.184,1.439,6.048
			c0.864,0.864,3.168,1.44,6.048,1.44c0.576,0,1.728,0,2.592,0c0.864,0,2.016-0.576,3.168-0.576v8.064
			c-1.727,0.576-3.744,1.152-4.896,1.152c-1.44,0-2.879,0.288-4.032,0.288c-5.472,0-9.504-1.152-11.809-2.88
			c-2.304-1.728-3.456-5.184-3.456-9.792v-41.184h-10.368V984.505z"/>
		<path d="M73.935,990.337v-7.2c-6.768,0.072-12.24,1.512-15.768,4.248c-3.456,2.88-5.472,7.2-5.472,12.384v0.864h10.656
			c0-2.88,1.152-5.76,3.456-7.488C68.535,991.705,71.055,990.625,73.935,990.337z"/>
		<path d="M73.935,1014.961v-7.56c-7.344,0.36-13.464,2.304-17.784,5.616c-4.896,3.744-7.488,8.928-7.488,15.264
			c0,5.472,2.016,10.08,5.472,13.248c3.456,3.167,8.64,4.896,14.4,4.896c1.872,0,3.672-0.144,5.4-0.504v-8.496
			c-0.792,0.072-1.656,0.072-2.52,0.072c-3.168,0-6.048-1.152-8.064-2.88s-3.168-4.608-3.168-7.488c0-3.744,1.728-6.912,4.608-9.216
			C66.951,1016.401,70.047,1015.393,73.935,1014.961z"/>
		<path d="M-201.249,1038.073v8.352c0.36,0,0.72,0,1.08,0c7.2,0,13.248-2.016,17.568-5.76c4.32-3.744,6.912-8.928,6.912-15.264
			h-10.656c0,4.032-1.44,7.2-4.032,9.504c-2.304,2.016-6.048,3.168-10.368,3.168
			C-200.961,1038.073-201.105,1038.073-201.249,1038.073z"/>
		<path d="M-201.249,1008.697v7.776h26.424c0-0.576,0.288-1.728,0.288-2.88c0-0.864,0-2.592,0-4.32c0-8.064-2.592-14.688-7.2-19.296
			c-4.608-4.608-11.232-6.912-19.296-6.912c-0.072,0-0.144,0.072-0.216,0.072v7.488c0.144,0,0.288-0.072,0.504-0.072
			c4.32,0,8.064,1.728,10.944,4.896c2.592,2.88,4.032,7.2,4.032,12.096v1.152H-201.249z"/>
		<path d="M-159.273,1044.985v-50.976c0-1.728,0-3.744,0-4.896c0-1.44-0.576-3.168-0.576-4.608h11.233l0.287,11.808
			c0.864-3.744,2.88-6.912,5.76-8.64c2.881-2.016,6.624-3.168,11.232-3.168c0.577,0,1.728,0,2.304,0s1.728,0.576,2.304,0.576v10.368
			c-1.151,0-2.592-0.576-3.456-0.576c-0.864,0-2.016-0.288-2.88-0.288c-4.608,0-8.64,1.44-11.232,4.32
			c-2.592,2.88-4.032,6.912-4.032,12.096v33.984H-159.273z"/>
		<path d="M-10.952,1041.241c-5.761,1.728-11.233,3.455-16.129,4.032c-4.895,0.864-9.792,1.44-14.4,1.44
			c-13.248,0-23.616-4.032-31.104-11.52c-7.488-7.776-11.232-18.72-11.232-32.544c0-14.112,3.744-25.344,11.232-33.408
			c7.488-8.064,17.856-12.384,31.104-12.384c9.216,0,16.704,2.016,21.888,6.048c5.184,4.032,8.352,10.08,8.641,16.992h-12.961
			c0-4.032-2.015-7.488-5.472-10.08c-3.456-2.592-8.352-4.032-13.824-4.032c-8.64,0-15.84,3.456-20.736,9.792
			s-7.488,15.552-7.488,26.784c0,10.944,2.592,19.871,7.776,25.632c5.184,6.048,12.96,9.215,22.464,9.215
			c2.304,0,5.184-0.287,7.776-0.575c2.88-0.576,6.336-1.44,10.08-2.304v-26.208h-18.144v-9.792h30.529V1041.241z"/>
		<path d="M8.343,1044.985v-50.976c0-1.728,0-3.744,0-4.896c0-1.44-0.576-3.168-0.576-4.608H19l0.287,11.808
			c0.864-3.744,2.88-6.912,5.761-8.64c2.879-2.016,6.623-3.168,11.231-3.168c0.576,0,1.728,0,2.304,0
			c0.576,0,1.728,0.576,2.304,0.576v10.368c-1.152,0-2.592-0.576-3.456-0.576c-0.864,0-2.016-0.288-2.88-0.288
			c-4.608,0-8.64,1.44-11.232,4.32c-2.592,2.88-4.032,6.912-4.032,12.096v33.984H8.343z"/>
		<path d="M-201.249,990.625v-7.488c-8.856,0-15.984,2.88-20.52,8.568c-4.608,5.472-6.912,13.824-6.912,24.48
			c0,9.791,2.592,17.568,7.2,22.752c4.392,4.752,11.52,7.344,20.232,7.488v-8.352c-4.968-0.073-9.144-1.8-11.88-4.609
			c-2.88-2.879-4.32-7.488-4.32-13.247v-2.304v-1.44h16.2v-7.776h-15.624c0-5.184,1.728-9.792,4.608-13.248
			C-209.529,992.425-205.641,990.697-201.249,990.625z"/>
		<path d="M-378.657,1038.361v7.416c0.72,0.072,1.44,0.072,2.232,0.072c8.352,0,14.976-2.88,19.584-8.064
			c4.608-5.184,6.913-13.248,6.913-23.04s-2.593-17.856-7.201-23.328c-4.608-5.472-11.232-8.352-19.584-8.352
			c-0.648,0-1.296,0.072-1.944,0.144v7.416c5.184,0,9.432,2.304,12.6,6.84c2.88,4.32,4.608,10.368,4.608,17.856
			c0,6.911-1.728,12.96-4.896,16.992C-369.153,1036.273-373.617,1038.289-378.657,1038.361z"/>
		<path d="M-293.769,1035.481c-1.44,3.168-4.032,6.048-7.2,7.776c-3.456,1.728-7.488,2.88-12.096,2.88
			c-3.744,0-7.488-0.864-10.656-2.016c-3.168-1.44-6.048-3.744-7.776-6.048c-1.152-1.44-2.016-3.456-2.304-5.184
			c-0.288-1.728-0.576-5.472-0.576-10.368v-38.016h10.944v38.88c0,5.184,1.152,8.928,3.168,11.232
			c2.016,2.304,5.472,3.456,10.08,3.456c4.608,0,8.928-1.44,11.808-3.744c2.88-2.592,4.608-6.048,4.608-10.08v-39.744h11.232v48.672
			c0,2.304,0,4.896,0,6.624c0,1.728,0.288,3.744,0.288,5.184h-11.232L-293.769,1035.481z"/>
		<path d="M-271.593,984.505h10.368v-12.096l10.944-4.032v16.128h13.536v8.064h-13.536v37.44c0,2.88,0.576,5.184,1.44,6.048
			c0.864,0.864,3.168,1.44,6.048,1.44c0.576,0,1.728,0,2.592,0s2.016-0.576,3.168-0.576v8.064c-1.728,0.576-3.744,1.152-4.896,1.152
			c-1.44,0-2.88,0.288-4.032,0.288c-5.472,0-9.504-1.152-11.808-2.88c-2.304-1.728-3.456-5.184-3.456-9.792v-41.184h-10.368V984.505
			z"/>
		<path d="M-378.657,990.625v-7.416c-3.384,0.288-6.624,1.296-9.288,2.736c-3.168,1.728-6.048,4.32-8.064,7.776l-0.576-9.216
			h-11.232c0,2.016,0.576,4.32,0.576,6.336c0,1.728,0.289,4.032,0.289,5.76v71.424l10.943-0.288v-31.968
			c2.304,3.168,5.184,5.76,8.641,7.488c2.591,1.439,5.543,2.304,8.711,2.52v-7.416c-0.072,0-0.216,0-0.36,0
			c-5.184,0-9.504-2.304-12.384-6.624c-2.88-4.32-4.608-10.656-4.608-18.144c0-6.912,1.728-12.672,4.896-16.704
			c2.88-4.032,7.2-6.336,12.384-6.336L-378.657,990.625z"/>
		<path d="M-561.969,1038.073v8.352c9.144-0.288,16.416-3.096,21.672-8.352c5.184-5.472,8.065-13.536,8.065-23.616
			c0-9.792-2.881-17.568-8.065-23.04c-5.184-5.4-12.528-8.28-21.672-8.28v7.992v0.072c5.688,0.072,10.44,2.304,13.608,6.264
			c3.168,4.032,4.897,9.792,4.897,16.992c0,7.488-1.729,13.536-5.184,17.568C-551.744,1035.985-556.425,1038-561.969,1038.073z"/>
		<path d="M-504.873,1044.985h-11.232v-47.808c0-1.152,0-2.88,0-4.896c0-2.304-0.576-4.896-0.576-7.776h11.232l0.576,10.368
			c1.44-3.168,4.032-6.048,7.2-7.776c3.168-2.016,6.912-3.168,10.944-3.168s8.064,0.864,11.232,2.592s6.336,4.608,8.64,8.064
			c3.168-3.744,6.624-6.624,9.504-8.064c2.88-1.728,6.912-2.592,10.944-2.592s8.064,0.864,11.52,2.592
			c3.456,1.728,6.048,4.32,7.488,7.2c0.576,1.152,1.152,3.168,1.44,5.184c0.288,2.304,0.576,5.472,0.576,9.216v36.864h-10.944
			v-38.304c0-4.608-1.152-8.352-3.168-10.656c-2.304-2.304-5.76-3.456-10.08-3.456c-4.608,0-8.352,1.44-10.944,4.032
			c-2.88,2.88-4.32,6.624-4.32,11.232v37.152h-11.232v-36.288c0-5.472-1.152-9.792-3.168-12.384
			c-2.304-2.592-5.76-4.032-10.368-4.032c-4.608,0-8.64,1.44-11.232,4.32s-4.032,6.912-4.032,12.096V1044.985z"/>
		<path d="M-603.945,1021.657c0,7.488-3.168,13.824-8.64,18.144c-5.76,4.32-13.536,6.624-23.04,6.624
			c-11.52,0-20.736-3.744-26.784-11.232c-6.048-7.488-9.216-18.72-9.216-33.12c0-14.4,3.168-25.632,9.504-33.408
			c6.336-7.776,15.84-11.808,27.648-11.808c9.216,0,16.704,2.304,21.888,6.336c5.184,4.32,8.353,10.368,8.353,17.856h-12.384
			c-0.289-4.32-2.305-8.064-5.761-10.656c-3.456-2.88-8.352-4.32-13.536-4.32c-7.2,0-12.959,3.168-16.992,9.504
			c-4.032,6.336-6.336,15.264-6.336,26.208c0,10.944,2.016,19.872,6.048,25.632c4.032,5.76,9.792,8.928,17.28,8.928
			c5.472,0,10.08-1.44,13.248-3.744c3.168-2.592,5.184-6.336,5.76-10.944H-603.945z"/>
		<path d="M-561.969,983.137l0.072,7.992c-5.76,0-10.656,2.304-13.824,6.624c-3.168,4.32-4.896,10.368-4.896,17.856
			c0,6.912,1.728,12.672,4.608,16.416c3.168,4.032,7.776,6.048,13.536,6.048c0.144,0,0.36,0,0.504,0v8.352c-0.432,0-0.936,0-1.368,0
			c-8.64,0-15.84-2.88-21.024-8.064c-5.184-5.184-7.776-12.96-7.776-22.464c0-9.792,2.88-18.144,8.064-23.904
			c5.184-5.76,12.672-8.928,21.888-8.928C-562.113,983.065-562.041,983.137-561.969,983.137z"/>
		<path d="M-561.969,991.201l0.072-0.072h-0.288C-562.113,991.129-562.041,991.201-561.969,991.201z"/>
	</g>
</g>
<g>
	<g>
		<path d="M718.335,1167.097v8.352c0.36,0,0.72,0,1.08,0c7.2,0,13.248-2.016,17.568-5.76c4.32-3.744,6.912-8.928,6.912-15.264
			h-10.656c0,4.032-1.44,7.2-4.032,9.504c-2.304,2.016-6.048,3.168-10.368,3.168
			C718.623,1167.097,718.479,1167.097,718.335,1167.097z"/>
		<path d="M718.335,1137.721v7.776h26.424c0-0.576,0.289-1.728,0.289-2.88c0-0.864,0-2.592,0-4.32
			c0-8.065-2.593-14.688-7.201-19.297c-4.608-4.607-11.232-6.911-19.296-6.911c-0.072,0-0.144,0.072-0.216,0.072v7.488
			c0.144,0,0.288-0.072,0.504-0.072c4.32,0,8.064,1.728,10.944,4.896c2.592,2.88,4.032,7.2,4.032,12.096v1.152H718.335z"/>
		<path d="M718.335,1119.649v-7.488c-8.856,0-15.984,2.88-20.52,8.568c-4.608,5.472-6.912,13.824-6.912,24.48
			c0,9.791,2.592,17.568,7.2,22.752c4.392,4.752,11.52,7.344,20.232,7.488v-8.352c-4.968-0.072-9.143-1.801-11.88-4.609
			c-2.88-2.879-4.32-7.488-4.32-13.247v-2.304v-1.44h16.2v-7.776h-15.624c0-5.184,1.728-9.792,4.608-13.248
			C710.055,1121.449,713.943,1119.721,718.335,1119.649z"/>
		<path d="M542.367,1167.097v8.352c0.36,0,0.72,0,1.08,0c7.2,0,13.248-2.016,17.568-5.76c4.321-3.744,6.912-8.928,6.912-15.264
			h-10.656c0,4.032-1.44,7.2-4.031,9.504c-2.305,2.016-6.048,3.168-10.369,3.168
			C542.655,1167.097,542.511,1167.097,542.367,1167.097z"/>
		<path d="M542.367,1137.721v7.776h26.424c0-0.576,0.288-1.728,0.288-2.88c0-0.864,0-2.592,0-4.32c0-8.065-2.592-14.688-7.2-19.297
			c-4.608-4.607-11.232-6.911-19.296-6.911c-0.072,0-0.144,0.072-0.216,0.072v7.488c0.144,0,0.288-0.072,0.504-0.072
			c4.321,0,8.064,1.728,10.944,4.896c2.592,2.88,4.032,7.2,4.032,12.096v1.152H542.367z"/>
		<path d="M595.575,1174.009h-11.232v-47.808c0-1.152,0-2.88,0-4.896c0-2.305-0.576-4.896-0.576-7.776H595l0.575,10.368
			c1.44-3.168,4.032-6.048,7.2-7.776c3.168-2.016,6.912-3.168,10.944-3.168c4.032,0,8.064,0.864,11.232,2.592
			s6.337,4.608,8.64,8.064c3.168-3.744,6.624-6.624,9.505-8.064c2.879-1.728,6.911-2.592,10.943-2.592s8.064,0.864,11.52,2.592
			s6.048,4.32,7.489,7.199c0.575,1.153,1.151,3.169,1.439,5.185c0.288,2.303,0.576,5.472,0.576,9.216v36.864h-10.944v-38.304
			c0-4.608-1.152-8.352-3.168-10.656c-2.304-2.305-5.759-3.456-10.08-3.456c-4.608,0-8.352,1.44-10.944,4.032
			c-2.879,2.88-4.32,6.624-4.32,11.232v37.152h-11.232v-36.288c0-5.472-1.152-9.792-3.168-12.384
			c-2.304-2.593-5.76-4.032-10.368-4.032c-4.608,0-8.64,1.439-11.232,4.32c-2.592,2.88-4.032,6.912-4.032,12.096V1174.009z"/>
		<path d="M542.367,1119.649v-7.488c-8.856,0-15.983,2.88-20.52,8.568c-4.607,5.472-6.912,13.824-6.912,24.48
			c0,9.791,2.593,17.568,7.2,22.752c4.394,4.752,11.521,7.344,20.232,7.488v-8.352c-4.968-0.072-9.144-1.801-11.88-4.609
			c-2.88-2.879-4.32-7.488-4.32-13.247v-2.304v-1.44h16.2v-7.776h-15.624c0-5.184,1.728-9.792,4.608-13.248
			C534.087,1121.449,537.975,1119.721,542.367,1119.649z"/>
		<path d="M107.055,1167.097v8.352c9.144-0.288,16.416-3.096,21.672-8.352c5.184-5.472,8.064-13.536,8.064-23.616
			c0-9.792-2.88-17.568-8.064-23.04c-5.184-5.4-12.528-8.28-21.672-8.28v7.992v0.072c5.688,0.072,10.44,2.304,13.608,6.263
			c3.168,4.033,4.896,9.793,4.896,16.993c0,7.488-1.728,13.536-5.184,17.568C117.279,1165.009,112.599,1167.025,107.055,1167.097z"
			/>
		<path d="M165.879,1123.321c1.152-2.88,3.744-5.76,6.912-7.488c3.456-1.728,7.488-2.88,11.808-2.88
			c4.032,0,7.776,0.864,10.944,2.304c3.456,1.44,6.048,3.743,7.776,6.048c1.152,1.152,2.016,3.168,2.304,4.896
			c0.576,2.016,0.864,5.76,0.864,10.368v37.44h-11.232v-38.016c0-5.184-1.152-8.928-3.168-11.232
			c-2.304-2.304-5.76-3.744-10.368-3.744c-4.608,0-8.352,1.44-11.232,3.744c-2.88,2.592-4.608,6.048-4.608,10.08v39.168h-11.232
			v-47.808c0-2.304,0-4.608,0-6.336c0-2.016-0.576-4.32-0.576-6.336h11.232L165.879,1123.321z"/>
		<path d="M222.327,1155.865h11.232v0.288c0,3.456,1.152,6.335,3.456,8.064c2.304,1.728,5.472,2.88,9.216,2.88
			c3.456,0,6.624-0.865,8.928-2.592c2.304-1.728,3.744-4.032,3.744-6.912c0-2.016-0.576-3.744-1.728-4.896
			c-1.152-1.152-3.168-2.592-5.472-3.168l-12.96-2.88c-5.184-1.152-9.504-3.456-11.808-5.76c-2.592-2.592-4.032-6.048-4.032-10.08
			c0-5.472,2.304-10.08,6.624-13.536c4.32-3.456,10.368-5.184,17.568-5.184c6.912,0,12.384,1.44,16.128,4.32
			c4.032,2.88,6.048,6.912,6.048,11.52c0,0.576,0,1.151,0,1.151l-0.288,0.577h-10.944v-0.288c0-2.881-1.152-5.184-3.168-6.912
			s-5.184-2.592-8.64-2.592s-6.336,0.864-8.352,2.592c-2.304,1.728-3.456,4.031-3.456,6.336c0,1.728,0.864,3.456,2.016,4.608
			c1.152,1.152,3.744,2.592,6.624,3.168l13.824,3.744c4.608,1.152,8.352,3.456,10.656,6.048c2.304,2.592,3.456,6.336,3.456,10.368
			c0,5.759-2.304,10.368-6.624,13.536c-4.32,3.456-10.368,5.184-17.568,5.184c-8.352,0-14.688-1.44-18.432-4.32
			c-4.032-2.88-6.048-7.488-6.048-13.824V1155.865z"/>
		<path d="M286.551,1155.865h11.232v0.288c0,3.456,1.152,6.335,3.456,8.064c2.304,1.728,5.472,2.88,9.216,2.88
			c3.456,0,6.624-0.865,8.928-2.592c2.304-1.728,3.744-4.032,3.744-6.912c0-2.016-0.576-3.744-1.728-4.896
			c-1.152-1.152-3.168-2.592-5.472-3.168l-12.96-2.88c-5.184-1.152-9.504-3.456-11.808-5.76c-2.592-2.592-4.032-6.048-4.032-10.08
			c0-5.472,2.304-10.08,6.624-13.536c4.32-3.456,10.368-5.184,17.568-5.184c6.912,0,12.384,1.44,16.128,4.32
			c4.032,2.88,6.048,6.912,6.048,11.52c0,0.576,0,1.151,0,1.151l-0.288,0.577h-10.944v-0.288c0-2.881-1.152-5.184-3.168-6.912
			c-2.016-1.728-5.184-2.592-8.64-2.592s-6.336,0.864-8.352,2.592c-2.304,1.728-3.456,4.031-3.456,6.336
			c0,1.728,0.864,3.456,2.016,4.608c1.152,1.152,3.744,2.592,6.624,3.168l13.824,3.744c4.608,1.152,8.352,3.456,10.656,6.048
			c2.304,2.592,3.456,6.336,3.456,10.368c0,5.759-2.304,10.368-6.624,13.536c-4.32,3.456-10.368,5.184-17.568,5.184
			c-8.352,0-14.688-1.44-18.432-4.32c-4.032-2.88-6.048-7.488-6.048-13.824V1155.865z"/>
		<polygon points="371.799,1174.009 347.031,1113.529 358.263,1113.529 377.559,1161.625 396.855,1113.529 408.087,1113.529
			372.663,1196.761 362.295,1196.761 		"/>
		<path d="M417.015,1155.865h11.232v0.288c0,3.456,1.152,6.335,3.456,8.064c2.304,1.728,5.472,2.88,9.216,2.88
			c3.456,0,6.624-0.865,8.928-2.592c2.304-1.728,3.744-4.032,3.744-6.912c0-2.016-0.576-3.744-1.728-4.896
			c-1.152-1.152-3.168-2.592-5.472-3.168l-12.959-2.88c-5.185-1.152-9.505-3.456-11.808-5.76c-2.593-2.592-4.033-6.048-4.033-10.08
			c0-5.472,2.304-10.08,6.624-13.536c4.32-3.456,10.368-5.184,17.568-5.184c6.912,0,12.384,1.44,16.128,4.32
			c4.032,2.88,6.048,6.912,6.048,11.52c0,0.576,0,1.151,0,1.151l-0.287,0.577h-10.945v-0.288c0-2.881-1.151-5.184-3.168-6.912
			c-2.016-1.728-5.184-2.592-8.64-2.592s-6.336,0.864-8.352,2.592c-2.304,1.728-3.456,4.031-3.456,6.336
			c0,1.728,0.864,3.456,2.016,4.608c1.152,1.152,3.744,2.592,6.624,3.168l13.825,3.744c4.607,1.152,8.351,3.456,10.655,6.048
			c2.304,2.592,3.456,6.336,3.456,10.368c0,5.759-2.303,10.368-6.624,13.536c-4.32,3.456-10.368,5.184-17.568,5.184
			c-8.351,0-14.688-1.44-18.432-4.32c-4.032-2.88-6.048-7.488-6.048-13.824V1155.865z"/>
		<path d="M471.447,1113.529h10.368v-12.096l10.944-4.032v16.128h13.536v8.064h-13.536v37.44c0,2.88,0.577,5.184,1.44,6.048
			c0.864,0.864,3.168,1.44,6.048,1.44c0.576,0,1.728,0,2.592,0c0.864,0,2.016-0.576,3.168-0.576v8.064
			c-1.728,0.576-3.744,1.152-4.896,1.152c-1.44,0-2.88,0.288-4.032,0.288c-5.472,0-9.503-1.152-11.808-2.88
			c-2.304-1.728-3.456-5.184-3.456-9.792v-41.184h-10.368V1113.529z"/>
		<path d="M107.055,1112.161l0.072,7.992c-5.76,0-10.656,2.304-13.824,6.624c-3.168,4.32-4.896,10.368-4.896,17.856
			c0,6.912,1.728,12.672,4.608,16.416c3.168,4.032,7.776,6.048,13.536,6.048c0.144,0,0.36,0,0.504,0v8.352c-0.432,0-0.936,0-1.368,0
			c-8.64,0-15.84-2.88-21.024-8.064c-5.184-5.184-7.776-12.96-7.776-22.464c0-9.792,2.88-18.144,8.064-23.904
			c5.184-5.76,12.672-8.928,21.888-8.928C106.911,1112.089,106.983,1112.161,107.055,1112.161z"/>
		<path d="M107.055,1120.225l0.072-0.072h-0.288C106.911,1120.153,106.983,1120.225,107.055,1120.225z"/>
		<path d="M-37.808,1166.449v8.496c2.591-0.504,4.895-1.296,6.983-2.376c3.168-1.728,5.76-4.32,7.2-7.776v0.288
			c0.288,4.608,0.864,7.776,1.152,8.928h10.08c0-1.152-0.576-2.304-0.576-3.456c0-0.864,0-1.728,0-2.016v-37.44
			c0-6.624-2.016-11.808-5.76-14.688c-3.744-2.88-10.079-4.32-18.144-4.32c-0.36,0-0.648,0.072-0.935,0.072v7.199
			c0.503,0,1.007-0.071,1.511-0.071c4.032,0,7.2,0.864,9.216,2.592c1.728,1.728,2.88,4.32,2.88,7.488v6.912h-10.655
			c-1.009,0-1.945,0.072-2.952,0.144v7.56c1.295-0.144,2.663-0.216,4.103-0.216h9.504v6.336c0,5.184-1.44,9.504-4.32,12.383
			C-30.681,1164.649-33.849,1166.017-37.808,1166.449z"/>
		<path d="M-1.161,1113.529H9.207v-12.096l10.944-4.032v16.128h13.536v8.064H20.151v37.44c0,2.88,0.576,5.184,1.44,6.048
			c0.864,0.864,3.168,1.44,6.048,1.44c0.576,0,1.728,0,2.592,0s2.016-0.576,3.168-0.576v8.064c-1.728,0.576-3.744,1.152-4.896,1.152
			c-1.44,0-2.88,0.288-4.032,0.288c-5.471,0-9.504-1.152-11.808-2.88c-2.304-1.728-3.456-5.184-3.456-9.792v-41.184H-1.161V1113.529
			z"/>
		<rect x="46.935" y="1087.033" width="13.248" height="12.384"/>
		<rect x="48.087" y="1113.529" width="11.232" height="60.48"/>
		<path d="M-37.808,1119.36v-7.199c-6.769,0.072-12.241,1.512-15.769,4.248c-3.456,2.88-5.472,7.2-5.472,12.384v0.864h10.656
			c0-2.88,1.152-5.76,3.456-7.488C-43.209,1120.729-40.689,1119.649-37.808,1119.36z"/>
		<path d="M-37.808,1143.985v-7.56c-7.345,0.36-13.465,2.304-17.785,5.616c-4.896,3.744-7.488,8.928-7.488,15.264
			c0,5.472,2.016,10.08,5.472,13.248c3.456,3.168,8.64,4.896,14.4,4.896c1.872,0,3.672-0.144,5.401-0.504v-8.496
			c-0.793,0.072-1.657,0.072-2.521,0.072c-3.168,0-6.048-1.152-8.064-2.88c-2.016-1.728-3.168-4.608-3.168-7.488
			c0-3.744,1.729-6.912,4.609-9.216C-44.793,1145.425-41.697,1144.417-37.808,1143.985z"/>
		<path d="M-263.601,1167.097v8.352c9.144-0.288,16.416-3.096,21.672-8.352c5.184-5.472,8.064-13.536,8.064-23.616
			c0-9.792-2.88-17.568-8.064-23.04c-5.184-5.4-12.528-8.28-21.672-8.28v7.992v0.072c5.688,0.072,10.44,2.304,13.608,6.263
			c3.168,4.033,4.896,9.793,4.896,16.993c0,7.488-1.728,13.536-5.184,17.568C-253.377,1165.009-258.057,1167.025-263.601,1167.097z"
			/>
		<path d="M-216.585,1174.009v-50.976c0-1.728,0-3.744,0-4.896c0-1.44-0.576-3.168-0.576-4.608h11.232l0.288,11.808
			c0.864-3.744,2.88-6.912,5.76-8.64c2.88-2.016,6.624-3.168,11.232-3.168c0.576,0,1.728,0,2.304,0s1.728,0.576,2.304,0.576v10.368
			c-1.152,0-2.592-0.576-3.456-0.576c-0.864,0-2.016-0.288-2.88-0.288c-4.608,0-8.64,1.44-11.232,4.32
			c-2.592,2.88-4.032,6.912-4.032,12.096v33.984H-216.585z"/>
		<path d="M-158.409,1174.009h-11.231v-47.808c0-1.152,0-2.88,0-4.896c0-2.305-0.577-4.896-0.577-7.776h11.232l0.576,10.368
			c1.44-3.168,4.032-6.048,7.2-7.776c3.168-2.016,6.912-3.168,10.944-3.168s8.064,0.864,11.232,2.592s6.336,4.608,8.64,8.064
			c3.168-3.744,6.624-6.624,9.504-8.064c2.88-1.728,6.913-2.592,10.944-2.592c4.032,0,8.065,0.864,11.52,2.592
			c3.456,1.728,6.048,4.32,7.488,7.199c0.576,1.153,1.153,3.169,1.44,5.185c0.288,2.303,0.576,5.472,0.576,9.216v36.864h-10.944
			v-38.304c0-4.608-1.152-8.352-3.168-10.656c-2.304-2.305-5.76-3.456-10.08-3.456c-4.608,0-8.352,1.44-10.944,4.032
			c-2.88,2.88-4.32,6.624-4.32,11.232v37.152h-11.232v-36.288c0-5.472-1.151-9.792-3.168-12.384
			c-2.304-2.593-5.76-4.032-10.368-4.032s-8.639,1.439-11.232,4.32c-2.592,2.88-4.032,6.912-4.032,12.096V1174.009z"/>
		<path d="M-263.601,1112.161l0.072,7.992c-5.76,0-10.656,2.304-13.824,6.624c-3.168,4.32-4.896,10.368-4.896,17.856
			c0,6.912,1.728,12.672,4.608,16.416c3.168,4.032,7.776,6.048,13.536,6.048c0.144,0,0.36,0,0.504,0v8.352c-0.432,0-0.936,0-1.368,0
			c-8.64,0-15.84-2.88-21.024-8.064c-5.184-5.184-7.776-12.96-7.776-22.464c0-9.792,2.88-18.144,8.064-23.904
			c5.184-5.76,12.672-8.928,21.888-8.928C-263.745,1112.089-263.673,1112.161-263.601,1112.161z"/>
		<path d="M-263.601,1120.225l0.072-0.072h-0.288C-263.745,1120.153-263.673,1120.225-263.601,1120.225z"/>
		<path d="M-482.481,1167.097v8.352c9.144-0.288,16.416-3.096,21.672-8.352c5.184-5.472,8.064-13.536,8.064-23.616
			c0-9.792-2.88-17.568-8.064-23.04c-5.184-5.4-12.528-8.28-21.672-8.28v7.992v0.072c5.688,0.072,10.44,2.304,13.608,6.263
			c3.168,4.033,4.896,9.793,4.896,16.993c0,7.488-1.728,13.536-5.184,17.568C-472.257,1165.009-476.937,1167.025-482.481,1167.097z"
			/>
		<rect x="-436.329" y="1087.033" width="13.248" height="12.384"/>
		<rect x="-435.177" y="1113.529" width="11.232" height="60.48"/>
		<path d="M-390.537,1123.321c1.152-2.88,3.744-5.76,6.912-7.488c3.456-1.728,7.488-2.88,11.808-2.88
			c4.032,0,7.776,0.864,10.944,2.304c3.457,1.44,6.048,3.743,7.776,6.048c1.152,1.152,2.016,3.168,2.304,4.896
			c0.576,2.016,0.865,5.76,0.865,10.368v37.44h-11.233v-38.016c0-5.184-1.152-8.928-3.168-11.232
			c-2.304-2.304-5.76-3.744-10.368-3.744c-4.608,0-8.352,1.44-11.231,3.744c-2.881,2.592-4.609,6.048-4.609,10.08v39.168h-11.232
			v-47.808c0-2.304,0-4.608,0-6.336c0-2.016-0.575-4.32-0.575-6.336h11.231L-390.537,1123.321z"/>
		<path d="M-328.329,1121.593h-10.944v-8.064h10.944v-9.504c0-5.76,1.44-10.656,4.032-13.536c2.592-2.88,6.912-4.608,12.672-4.608
			c1.152,0,2.88,0.288,4.32,0.288c1.728,0,3.744,0.576,5.76,0.864v8.928c-2.304-0.576-4.032-1.152-4.896-1.152
			s-2.016-0.288-2.88-0.288c-2.304,0-4.608,0.864-5.76,2.592c-1.152,1.728-2.016,4.32-2.016,7.2v9.216h13.824v8.064h-13.824v52.416
			h-11.232V1121.593z"/>
		<path d="M-482.481,1112.161l0.072,7.992c-5.76,0-10.656,2.304-13.824,6.624c-3.168,4.32-4.896,10.368-4.896,17.856
			c0,6.912,1.728,12.672,4.608,16.416c3.168,4.032,7.776,6.048,13.536,6.048c0.144,0,0.36,0,0.504,0v8.352c-0.432,0-0.936,0-1.368,0
			c-8.64,0-15.84-2.88-21.024-8.064c-5.184-5.184-7.776-12.96-7.776-22.464c0-9.792,2.88-18.144,8.064-23.904
			c5.184-5.76,12.672-8.928,21.888-8.928C-482.625,1112.089-482.553,1112.161-482.481,1112.161z"/>
		<path d="M-482.481,1120.225l0.072-0.072h-0.288C-482.625,1120.153-482.553,1120.225-482.481,1120.225z"/>
		<path d="M-553.473,1167.097v8.352c0.36,0,0.72,0,1.081,0c7.199,0,13.247-2.016,17.567-5.76s6.912-8.928,6.912-15.264h-10.656
			c0,4.032-1.44,7.2-4.032,9.504c-2.303,2.016-6.047,3.168-10.368,3.168C-553.184,1167.097-553.329,1167.097-553.473,1167.097z"/>
		<path d="M-553.473,1137.721v7.776h26.424c0-0.576,0.288-1.728,0.288-2.88c0-0.864,0-2.592,0-4.32c0-8.065-2.592-14.688-7.2-19.297
			c-4.608-4.607-11.232-6.911-19.296-6.911c-0.072,0-0.144,0.072-0.216,0.072v7.488c0.144,0,0.289-0.072,0.504-0.072
			c4.321,0,8.065,1.728,10.944,4.896c2.592,2.88,4.032,7.2,4.032,12.096v1.152H-553.473z"/>
		<path d="M-598.761,1170.265c-5.76,1.728-11.232,3.456-16.128,4.032c-4.896,0.864-9.792,1.44-14.4,1.44
			c-13.248,0-23.616-4.032-31.104-11.52c-7.488-7.776-11.232-18.72-11.232-32.544c0-14.112,3.744-25.344,11.232-33.408
			s17.856-12.384,31.104-12.384c9.216,0,16.704,2.016,21.888,6.048c5.184,4.032,8.352,10.08,8.64,16.992h-12.959
			c0-4.032-2.017-7.488-5.473-10.08c-3.456-2.592-8.352-4.032-13.824-4.032c-8.64,0-15.84,3.456-20.736,9.792
			s-7.488,15.552-7.488,26.784c0,10.944,2.592,19.872,7.776,25.632c5.184,6.048,12.96,9.215,22.464,9.215
			c2.304,0,5.184-0.287,7.776-0.575c2.88-0.576,6.336-1.44,10.08-2.304v-26.208h-18.144v-9.792h30.528V1170.265z"/>
		<path d="M-553.473,1119.649v-7.488c-8.856,0-15.984,2.88-20.52,8.568c-4.608,5.472-6.912,13.824-6.912,24.48
			c0,9.791,2.592,17.568,7.2,22.752c4.392,4.752,11.52,7.344,20.232,7.488v-8.352c-4.968-0.072-9.144-1.801-11.88-4.609
			c-2.88-2.879-4.32-7.488-4.32-13.247v-2.304v-1.44h16.2v-7.776h-15.624c0-5.184,1.728-9.792,4.608-13.248
			C-561.753,1121.449-557.865,1119.721-553.473,1119.649z"/>
	</g>
</g>
</svg>
